<svg xmlns="http://www.w3.org/2000/svg" viewBox="0 0 100 100" preserveAspectRatio="xMidYMid" width="200" height="200" style="shape-rendering: auto; display: block; background: transparent;" xmlns:xlink="http://www.w3.org/1999/xlink"><g><g transform="rotate(0 50 50)">
  <rect fill="#000000" height="18" width="5" ry="2.88" rx="2.5" y="21" x="47.5">
    <animate repeatCount="indefinite" begin="-1.2222222222222223s" dur="1.3333333333333333s" keyTimes="0;1" values="1;0" attributeName="opacity"></animate>
  </rect>
</g><g transform="rotate(30 50 50)">
  <rect fill="#000000" height="18" width="5" ry="2.88" rx="2.5" y="21" x="47.5">
    <animate repeatCount="indefinite" begin="-1.1111111111111112s" dur="1.3333333333333333s" keyTimes="0;1" values="1;0" attributeName="opacity"></animate>
  </rect>
</g><g transform="rotate(60 50 50)">
  <rect fill="#000000" height="18" width="5" ry="2.88" rx="2.5" y="21" x="47.5">
    <animate repeatCount="indefinite" begin="-1s" dur="1.3333333333333333s" keyTimes="0;1" values="1;0" attributeName="opacity"></animate>
  </rect>
</g><g transform="rotate(90 50 50)">
  <rect fill="#000000" height="18" width="5" ry="2.88" rx="2.5" y="21" x="47.5">
    <animate repeatCount="indefinite" begin="-0.8888888888888888s" dur="1.3333333333333333s" keyTimes="0;1" values="1;0" attributeName="opacity"></animate>
  </rect>
</g><g transform="rotate(120 50 50)">
  <rect fill="#000000" height="18" width="5" ry="2.88" rx="2.5" y="21" x="47.5">
    <animate repeatCount="indefinite" begin="-0.7777777777777778s" dur="1.3333333333333333s" keyTimes="0;1" values="1;0" attributeName="opacity"></animate>
  </rect>
</g><g transform="rotate(150 50 50)">
  <rect fill="#000000" height="18" width="5" ry="2.88" rx="2.5" y="21" x="47.5">
    <animate repeatCount="indefinite" begin="-0.6666666666666666s" dur="1.3333333333333333s" keyTimes="0;1" values="1;0" attributeName="opacity"></animate>
  </rect>
</g><g transform="rotate(180 50 50)">
  <rect fill="#000000" height="18" width="5" ry="2.88" rx="2.5" y="21" x="47.5">
    <animate repeatCount="indefinite" begin="-0.5555555555555556s" dur="1.3333333333333333s" keyTimes="0;1" values="1;0" attributeName="opacity"></animate>
  </rect>
</g><g transform="rotate(210 50 50)">
  <rect fill="#000000" height="18" width="5" ry="2.88" rx="2.5" y="21" x="47.5">
    <animate repeatCount="indefinite" begin="-0.4444444444444444s" dur="1.3333333333333333s" keyTimes="0;1" values="1;0" attributeName="opacity"></animate>
  </rect>
</g><g transform="rotate(240 50 50)">
  <rect fill="#000000" height="18" width="5" ry="2.88" rx="2.5" y="21" x="47.5">
    <animate repeatCount="indefinite" begin="-0.3333333333333333s" dur="1.3333333333333333s" keyTimes="0;1" values="1;0" attributeName="opacity"></animate>
  </rect>
</g><g transform="rotate(270 50 50)">
  <rect fill="#000000" height="18" width="5" ry="2.88" rx="2.5" y="21" x="47.5">
    <animate repeatCount="indefinite" begin="-0.2222222222222222s" dur="1.3333333333333333s" keyTimes="0;1" values="1;0" attributeName="opacity"></animate>
  </rect>
</g><g transform="rotate(300 50 50)">
  <rect fill="#000000" height="18" width="5" ry="2.88" rx="2.5" y="21" x="47.5">
    <animate repeatCount="indefinite" begin="-0.1111111111111111s" dur="1.3333333333333333s" keyTimes="0;1" values="1;0" attributeName="opacity"></animate>
  </rect>
</g><g transform="rotate(330 50 50)">
  <rect fill="#000000" height="18" width="5" ry="2.88" rx="2.5" y="21" x="47.5">
    <animate repeatCount="indefinite" begin="0s" dur="1.3333333333333333s" keyTimes="0;1" values="1;0" attributeName="opacity"></animate>
  </rect>
</g><g></g></g><!-- [ldio] generated by https://loading.io --></svg>