<?xml version="1.0" encoding="UTF-8"?>
<svg id="Layer_3" data-name="Layer 3" xmlns="http://www.w3.org/2000/svg" version="1.1" viewBox="0 0 32 32">
  <defs>
    <style>
      .cls-1 {
        fill: #231f20;
        stroke-width: 0px;
      }

      .cls-2 {
        fill: none;
        stroke: #231f20;
        stroke-miterlimit: 10;
        stroke-width: 2px;
      }
    </style>
  </defs>
  <path class="cls-2" d="M21.6,14.3v-1.1c0-3.1-2.5-5.6-5.6-5.6s-5.6,2.5-5.6,5.6v1.1"/>
  <path class="cls-1" d="M22.5,14.3h-13c-1.4,0-2.5,1.1-2.5,2.5v7c0,1.4,1.1,2.5,2.5,2.5h13c1.4,0,2.5-1.1,2.5-2.5v-7c0-1.4-1.1-2.5-2.5-2.5ZM17,20.5v1.8c0,.6-.4,1-1,1s-1-.4-1-1v-1.8c-.5-.3-.8-.8-.8-1.4,0-1,.8-1.8,1.8-1.8s1.8.8,1.8,1.8-.3,1.1-.8,1.4Z"/>
</svg>