<svg width="1191" height="1196" xmlns="http://www.w3.org/2000/svg" xmlns:xlink="http://www.w3.org/1999/xlink" xml:space="preserve" overflow="hidden"><g transform="translate(-1054 -403)"><g><path d="M1502.34 474.601C1746.3 474.601 1887.64 542.043 1887.64 580.553 1887.64 615.904 1746.3 683.245 1502.34 683.245 1258.38 683.245 1117.04 615.904 1117.04 580.553 1120.3 542.043 1261.54 474.601 1502.34 474.601ZM1894.06 680.087 1894.06 830.865 1855.44 830.865C1852.38 830.763 1849.22 830.763 1846.06 830.763 1731.12 830.763 1628.91 887.713 1560.12 968.909 1539.33 969.927 1519.05 970.437 1499.49 970.437 1268.06 970.437 1123.46 904.42 1123.46 862.956L1123.46 680.087C1223.02 741.01 1386.78 757.106 1508.76 757.106 1624.32 757.106 1791.24 741.01 1894.06 680.087ZM1120.3 965.75C1223.02 1023.51 1393.2 1039.51 1511.92 1039.51 1486.24 1087.7 1470.24 1148.62 1470.24 1212.8L1470.24 1248.15C1245.54 1241.74 1120.3 1180.71 1120.3 1145.46L1120.3 965.75ZM1120.3 1241.74C1216.6 1296.34 1373.94 1318.75 1486.24 1318.75 1511.92 1402.19 1560.12 1469.63 1627.58 1520.98 1585.8 1525.16 1545.34 1527.09 1506.82 1527.09 1281.82 1527.09 1120.3 1462.61 1120.3 1421.45L1120.3 1241.74ZM1852.28 898.308C2025.62 898.308 2170.12 1039.51 2170.12 1212.8 2173.28 1386.2 2028.88 1527.4 1852.28 1527.4 1678.94 1527.4 1537.6 1386.2 1537.6 1212.8 1537.6 1039.51 1678.94 898.308 1852.28 898.308ZM1505.5 404C1389.94 404 1280.8 420.096 1200.5 445.77 1081.78 487.437 1056.1 538.783 1056.1 580.553L1056.1 1421.45C1056.1 1456.8 1081.78 1514.56 1200.5 1553.07 1287.22 1581.9 1393.2 1598 1505.5 1598 1585.8 1598 1662.84 1591.58 1730.3 1578.75 1771.98 1591.58 1810.5 1598 1855.44 1598 2067.4 1598 2244 1424.71 2244 1212.8 2240.74 1033.09 2115.5 888.63 1955 843.702L1955 580.553C1955 542.043 1932.58 487.437 1810.5 445.77 1727.04 420.096 1617.9 404 1505.5 404Z" fill="white" fill-rule="evenodd" fill-opacity="1"/><path d="M2032.1 1107.1C2022.94 1107.1 2014.09 1110.26 2009.31 1116.67L1823.32 1302.78 1707.94 1184.07C1701.53 1179.28 1692.78 1176.84 1683.93 1176.84 1675.08 1176.84 1666.33 1179.28 1659.92 1184.07 1647.1 1196.9 1647.1 1222.55 1659.92 1232.12L1800.94 1373.33C1805.72 1379.74 1814.57 1382.9 1823.73 1382.9 1832.99 1382.9 1842.55 1379.74 1848.96 1373.33L2057.33 1164.83C2067 1152 2067 1129.5 2057.33 1116.67 2050.92 1110.26 2041.36 1107.1 2032.1 1107.1Z" fill="white" fill-rule="evenodd" fill-opacity="1"/></g></g></svg>