<?xml version="1.0" encoding="UTF-8"?>
<svg id="Layer_3" data-name="Layer 3" xmlns="http://www.w3.org/2000/svg" version="1.1" viewBox="0 0 32 32">
  <defs>
    <style>
      .cls-1 {
        fill: #231f20;
        stroke-width: 0px;
      }
    </style>
  </defs>
  <path class="cls-1" d="M18.6,14.3H5.6c-1.4,0-2.5,1.1-2.5,2.5v7c0,1.4,1.1,2.5,2.5,2.5h13c1.4,0,2.5-1.1,2.5-2.5v-7c0-1.4-1.1-2.5-2.5-2.5ZM13.1,20.5v1.8c0,.6-.4,1-1,1s-1-.4-1-1v-1.8c-.5-.3-.8-.8-.8-1.4,0-1,.8-1.8,1.8-1.8s1.8.8,1.8,1.8-.3,1.1-.8,1.4Z"/>
  <path class="cls-1" d="M17.7,15.3c-.6,0-1-.4-1-1v-3.6c0-3.6,3-6.6,6.6-6.6s6.6,3,6.6,6.6v1.1c0,.6-.4,1-1,1s-1-.4-1-1v-1.1c0-2.5-2.1-4.6-4.6-4.6s-4.6,2.1-4.6,4.6v3.6c0,.6-.4,1-1,1Z"/>
</svg>